<?xml version="1.0" standalone="no"?>
<!DOCTYPE svg PUBLIC "-//W3C//DTD SVG 20010904//EN"
 "http://www.w3.org/TR/2001/REC-SVG-20010904/DTD/svg10.dtd">
<svg version="1.0" xmlns="http://www.w3.org/2000/svg"
 width="225.000000pt" height="225.000000pt" viewBox="0 0 225.000000 225.000000"
 preserveAspectRatio="xMidYMid meet">
<metadata>
Created by potrace 1.10, written by Peter Selinger 2001-2011
</metadata>
<g transform="translate(0.000000,225.000000) scale(0.100000,-0.100000)"
fill="#b73c1c" stroke="none">
<path d="M630 1291 c0 -81 3 -176 6 -210 l7 -61 561 0 561 -1 138 -27 c76 -15
141 -24 143 -20 8 13 -6 28 -25 28 -10 0 -65 12 -122 26 -57 14 -137 26 -177
27 l-72 2 26 19 c34 25 46 59 33 93 -13 34 -37 52 -71 53 -40 0 -57 -9 -73
-41 -22 -41 -19 -58 18 -93 l33 -31 -343 0 c-189 0 -343 2 -343 5 0 3 10 10
22 15 71 31 45 144 -34 145 -40 0 -57 -9 -73 -41 -22 -41 -19 -57 15 -91 17
-17 30 -31 28 -32 -2 -1 -55 1 -118 4 l-115 5 -3 188 c-1 113 -6 187 -12 187
-6 0 -10 -58 -10 -149z m323 -122 c14 -22 1 -66 -21 -71 -34 -9 -62 9 -62 40
0 15 6 34 12 40 17 17 58 11 71 -9z m720 0 c14 -22 1 -67 -21 -71 -48 -11 -82
33 -55 71 17 26 60 25 76 0z"/>
<path d="M1138 1376 l-63 -65 -143 -20 c-79 -12 -147 -23 -152 -26 -12 -7 -33
-103 -26 -120 3 -8 16 -15 29 -15 19 0 26 7 31 30 7 37 45 77 80 86 54 13 126
-45 126 -101 0 -20 6 -20 255 -17 l255 3 0 23 c0 30 48 83 84 92 53 13 126
-44 126 -99 0 -16 8 -18 73 -15 l72 3 3 60 c5 102 5 102 -97 110 -98 8 -100 8
-145 88 l-27 47 -209 0 -209 0 -63 -64z m230 -8 l-3 -53 -117 -3 c-65 -1 -118
1 -118 6 0 5 18 30 41 56 l41 46 79 0 80 0 -3 -52z m213 17 c9 -16 20 -40 24
-52 6 -23 6 -23 -104 -23 l-111 0 0 48 c0 27 3 52 7 56 4 4 43 5 87 4 77 -3
81 -4 97 -33z m-243 -111 c112 -1 205 -4 208 -7 3 -2 -9 -25 -26 -51 l-31 -46
-214 0 -214 0 -19 28 c-43 61 -43 67 -5 70 19 1 42 6 52 12 9 5 23 6 31 2 8
-4 106 -8 218 -8z m503 -19 c12 -4 15 -14 13 -36 -5 -42 -11 -49 -41 -49 -25
0 -73 40 -73 61 0 5 -4 9 -9 9 -5 0 -11 6 -14 14 -5 12 4 14 51 10 31 -2 64
-7 73 -9z"/>
<path d="M368 1401 c-60 -12 -95 -53 -138 -166 -19 -50 -23 -80 -24 -176 -1
-137 9 -159 75 -159 36 0 39 2 45 35 10 54 53 85 118 85 58 0 88 -16 111 -60
14 -27 17 -28 67 -23 29 3 58 10 65 15 16 13 227 12 231 0 2 -7 -36 -10 -102
-10 -63 0 -106 4 -106 9 0 6 -5 7 -10 4 -8 -5 -7 -11 1 -21 14 -17 259 -21
259 -4 0 6 46 10 118 11 l117 0 23 30 24 29 -316 0 -316 0 -2 203 -3 202 -100
2 c-55 0 -117 -2 -137 -6z m160 -104 c2 -50 -1 -84 -9 -93 -7 -9 -33 -14 -73
-14 -38 -1 -68 -6 -80 -15 -28 -21 -126 -20 -126 1 0 25 59 160 78 177 21 19
57 25 142 23 l65 -1 3 -78z m51 -190 c-1 -45 -4 -85 -6 -90 -2 -4 -17 2 -33
13 -40 28 -115 36 -162 16 -41 -17 -81 -62 -71 -80 3 -6 3 -8 -2 -4 -4 4 -14
0 -21 -10 -12 -16 -13 -16 -26 1 -9 12 -12 39 -8 90 l5 72 53 3 c28 2 52 8 52
13 0 6 4 8 9 4 5 -3 12 -1 16 5 3 5 31 10 62 10 41 0 60 5 70 18 9 10 12 11 7
2 -4 -8 4 -5 16 7 13 12 27 20 32 17 5 -3 8 -43 7 -87z"/>
<path d="M401 986 c-54 -30 -64 -91 -25 -148 36 -51 74 -58 162 -27 56 19 95
24 242 28 221 8 403 0 424 -18 9 -7 38 -14 65 -14 28 0 48 -4 45 -9 -9 -14 15
-9 64 15 58 28 106 41 237 62 108 18 128 25 123 40 -7 21 -263 3 -283 -20 -5
-6 -30 -27 -55 -45 -35 -26 -40 -28 -22 -9 33 37 30 93 -7 130 -40 39 -82 39
-122 0 -40 -41 -40 -91 0 -132 16 -16 27 -29 25 -29 -13 0 -66 33 -86 53 -21
21 -36 24 -144 30 -115 6 -197 4 -344 -8 -136 -12 -153 -16 -181 -46 -15 -16
-33 -29 -41 -29 -7 1 -1 7 13 15 57 31 56 130 -1 160 -35 18 -57 18 -89 1z
m99 -79 c0 -42 -15 -57 -57 -57 -64 0 -82 74 -25 104 23 12 31 12 54 0 22 -11
28 -22 28 -47z m844 42 c48 -38 25 -99 -37 -99 -38 0 -57 19 -57 59 0 18 42
61 60 61 4 0 19 -9 34 -21z"/>
<path d="M417 918 c-5 -16 10 -48 23 -48 16 0 39 31 34 45 -7 18 -51 20 -57 3z"/>
<path d="M1283 914 c-3 -8 2 -23 11 -32 15 -15 17 -15 32 0 21 21 11 48 -16
48 -11 0 -23 -7 -27 -16z"/>
<path d="M1402 970 l23 -31 115 5 c126 5 200 21 200 42 0 11 -34 14 -181 14
l-181 0 24 -30z"/>
<path d="M250 860 c0 -5 10 -12 23 -14 76 -16 90 -13 65 12 -14 14 -88 16 -88
2z"/>
</g>
</svg>
